<svg width="18" height="18" viewBox="0 0 18 18" fill="none" xmlns="http://www.w3.org/2000/svg">
<path d="M17.3203 7.93593L13.7969 11.0109L14.8524 15.5891C14.9082 15.8284 14.8923 16.0789 14.8065 16.3092C14.7208 16.5395 14.5691 16.7395 14.3703 16.884C14.1716 17.0286 13.9346 17.1113 13.6891 17.122C13.4436 17.1326 13.2004 17.0706 12.9899 16.9437L8.99689 14.5219L5.01252 16.9437C4.80202 17.0706 4.55881 17.1326 4.31328 17.122C4.06775 17.1113 3.83079 17.0286 3.63204 16.884C3.4333 16.7395 3.28157 16.5395 3.19584 16.3092C3.1101 16.0789 3.09416 15.8284 3.15002 15.5891L4.20392 11.0156L0.679705 7.93593C0.493305 7.77517 0.358519 7.56295 0.292249 7.32589C0.225978 7.08883 0.231173 6.83748 0.307183 6.60336C0.383193 6.36924 0.526633 6.16278 0.719516 6.00985C0.912399 5.85693 1.14614 5.76436 1.39142 5.74375L6.03674 5.3414L7.85002 1.0164C7.94471 0.789462 8.10443 0.595612 8.30907 0.45926C8.51371 0.322909 8.75411 0.250153 9.00002 0.250153C9.24592 0.250153 9.48633 0.322909 9.69097 0.45926C9.8956 0.595612 10.0553 0.789462 10.15 1.0164L11.9688 5.3414L16.6125 5.74375C16.8578 5.76436 17.0915 5.85693 17.2844 6.00985C17.4773 6.16278 17.6207 6.36924 17.6968 6.60336C17.7728 6.83748 17.778 7.08883 17.7117 7.32589C17.6454 7.56295 17.5106 7.77517 17.3242 7.93593H17.3203Z" fill="#DED700"/>
</svg>
