 <svg
    width="40"
    height="41"
    viewBox="0 0 40 41"
    fill="none"
    xmlns="http://www.w3.org/2000/svg"
  >
    <rect y="0.5" width="40" height="40" rx="6" fill="#2F80ED" />
    <path
      d="M27.7909 15.3455L24.1545 11.7091C24.016 11.574 23.8298 11.4989 23.6364 11.5H16.3636C15.9779 11.5 15.6079 11.6533 15.3351 11.926C15.0623 12.1988 14.9091 12.5688 14.9091 12.9546V14.4091H13.4545C13.0688 14.4091 12.6988 14.5623 12.426 14.8351C12.1532 15.1079 12 15.4779 12 15.8636V28.9545C12 29.3403 12.1532 29.7103 12.426 29.9831C12.6988 30.2558 13.0688 30.4091 13.4545 30.4091H23.6364C24.0221 30.4091 24.3921 30.2558 24.6649 29.9831C24.9377 29.7103 25.0909 29.3403 25.0909 28.9545V27.5H26.5454C26.9312 27.5 27.3012 27.3468 27.574 27.074C27.8467 26.8012 28 26.4312 28 26.0455V15.8636C28.0011 15.6702 27.926 15.484 27.7909 15.3455ZM23.6364 28.9545H13.4545V15.8636H20.4273L23.6364 19.0727V28.9545ZM26.5454 26.0455H25.0909V18.7727C25.092 18.5792 25.0169 18.3931 24.8818 18.2546L21.2454 14.6182C21.1069 14.4831 20.9208 14.408 20.7273 14.4091H16.3636V12.9546H23.3364L26.5454 16.1636V26.0455ZM21.4545 23.1364C21.4545 23.3293 21.3779 23.5142 21.2415 23.6506C21.1051 23.787 20.9202 23.8636 20.7273 23.8636H16.3636C16.1707 23.8636 15.9858 23.787 15.8494 23.6506C15.713 23.5142 15.6364 23.3293 15.6364 23.1364C15.6364 22.9435 15.713 22.7585 15.8494 22.6221C15.9858 22.4857 16.1707 22.4091 16.3636 22.4091H20.7273C20.9202 22.4091 21.1051 22.4857 21.2415 22.6221C21.3779 22.7585 21.4545 22.9435 21.4545 23.1364ZM21.4545 26.0455C21.4545 26.2383 21.3779 26.4233 21.2415 26.5597C21.1051 26.6961 20.9202 26.7727 20.7273 26.7727H16.3636C16.1707 26.7727 15.9858 26.6961 15.8494 26.5597C15.713 26.4233 15.6364 26.2383 15.6364 26.0455C15.6364 25.8526 15.713 25.6676 15.8494 25.5312C15.9858 25.3948 16.1707 25.3182 16.3636 25.3182H20.7273C20.9202 25.3182 21.1051 25.3948 21.2415 25.5312C21.3779 25.6676 21.4545 25.8526 21.4545 26.0455Z"
      fill="white"
    />
  </svg>