     <svg
              width="18"
              height="20"
              viewBox="0 0 18 20"
              fill="none"
              xmlns="http://www.w3.org/2000/svg"
            >
              <path
                d="M16.6594 9.46586C16.8002 9.60805 16.8792 9.8001 16.8792 10.0002C16.8792 10.2004 16.8002 10.3924 16.6594 10.5346L8.96252 18.2127C7.97791 19.1973 6.64248 19.7505 5.25002 19.7505C3.85757 19.7505 2.52214 19.1973 1.53752 18.2127C0.552908 17.2281 -0.000244141 15.8927 -0.000244141 14.5002C-0.000244141 13.1078 0.552908 11.7723 1.53752 10.7877L10.8469 1.35648C11.1913 0.993307 11.605 0.702761 12.0635 0.501971C12.522 0.30118 13.016 0.194209 13.5165 0.187363C14.017 0.180516 14.5138 0.273933 14.9776 0.462106C15.4414 0.650279 15.8629 0.929401 16.2171 1.28302C16.5714 1.63663 16.8512 2.05759 17.0402 2.52107C17.2292 2.98455 17.3235 3.48118 17.3175 3.98168C17.3116 4.48217 17.2055 4.97641 17.0055 5.43526C16.8055 5.89411 16.5157 6.30828 16.1531 6.65336L6.84377 16.0846C6.63569 16.2959 6.38757 16.4636 6.11392 16.5779C5.84027 16.6922 5.54658 16.7508 5.25002 16.7502C4.80421 16.7513 4.36812 16.62 3.9971 16.3728C3.62607 16.1256 3.33683 15.7738 3.16607 15.362C2.99532 14.9502 2.95075 14.4969 3.03803 14.0598C3.1253 13.6226 3.34049 13.2212 3.65627 12.9065L11.4656 4.97523C11.5332 4.89943 11.6155 4.83815 11.7075 4.79509C11.7994 4.75203 11.8992 4.7281 12.0007 4.72474C12.1022 4.72138 12.2033 4.73867 12.2979 4.77556C12.3925 4.81245 12.4786 4.86816 12.5511 4.93933C12.6235 5.0105 12.6808 5.09563 12.7193 5.18958C12.7579 5.28352 12.7769 5.38432 12.7754 5.48586C12.7738 5.58739 12.7517 5.68755 12.7102 5.78027C12.6688 5.87299 12.609 5.95632 12.5344 6.02523L4.72502 13.9659C4.65393 14.0355 4.59743 14.1187 4.5588 14.2104C4.52017 14.3022 4.50019 14.4007 4.50002 14.5002C4.4989 14.6998 4.57636 14.8917 4.71565 15.0346C4.85962 15.1722 5.05087 15.2494 5.25002 15.2502C5.44956 15.2514 5.64152 15.1739 5.7844 15.0346L15.0844 5.59398C15.2957 5.38589 15.4634 5.13777 15.5777 4.86412C15.692 4.59047 15.7506 4.29679 15.75 4.00023C15.7511 3.55442 15.6198 3.11833 15.3726 2.7473C15.1254 2.37628 14.7736 2.08703 14.3618 1.91628C13.95 1.74553 13.4967 1.70096 13.0596 1.78824C12.6224 1.87551 12.221 2.0907 11.9063 2.40648L2.60627 11.8471C2.2431 12.1915 1.95255 12.6052 1.75176 13.0637C1.55097 13.5222 1.444 14.0162 1.43715 14.5167C1.43031 15.0172 1.52372 15.514 1.7119 15.9778C1.90007 16.4416 2.17919 16.8631 2.53281 17.2173C2.88643 17.5716 3.30738 17.8514 3.77086 18.0404C4.23434 18.2294 4.73097 18.3237 5.23147 18.3178C5.73196 18.3118 6.2262 18.2057 6.68505 18.0057C7.1439 17.8057 7.55807 17.5159 7.90315 17.1534L15.5906 9.46586C15.7328 9.32502 15.9249 9.24601 16.125 9.24601C16.3252 9.24601 16.5172 9.32502 16.6594 9.46586Z"
                fill="black"
              />
            </svg>