 <svg
                width="20"
                height="20"
                viewBox="0 0 20 20"
                fill="none"
                xmlns="http://www.w3.org/2000/svg"
              >
                <path
                  d="M10 0.4375C8.10872 0.4375 6.25991 0.998331 4.68736 2.04907C3.11482 3.09981 1.88917 4.59327 1.16541 6.34059C0.441643 8.08791 0.252274 10.0106 0.621245 11.8656C0.990216 13.7205 1.90096 15.4244 3.2383 16.7617C4.57564 18.099 6.27951 19.0098 8.13445 19.3788C9.9894 19.7477 11.9121 19.5584 13.6594 18.8346C15.4067 18.1108 16.9002 16.8852 17.9509 15.3126C19.0017 13.7401 19.5625 11.8913 19.5625 10C19.5575 7.46539 18.5485 5.03601 16.7562 3.24376C14.964 1.45152 12.5346 0.442455 10 0.4375ZM10 18.4375C8.33122 18.4375 6.69992 17.9426 5.31238 17.0155C3.92484 16.0884 2.84338 14.7706 2.20477 13.2289C1.56616 11.6871 1.39907 9.99064 1.72463 8.35393C2.05019 6.71721 2.85379 5.21379 4.03379 4.03379C5.2138 2.85378 6.71722 2.05019 8.35393 1.72462C9.99064 1.39906 11.6871 1.56615 13.2289 2.20477C14.7706 2.84338 16.0884 3.92484 17.0155 5.31238C17.9427 6.69992 18.4375 8.33122 18.4375 10C18.435 12.237 17.5453 14.3817 15.9635 15.9635C14.3817 17.5453 12.237 18.435 10 18.4375ZM5.6875 8.125C5.6875 7.93958 5.74249 7.75832 5.8455 7.60415C5.94852 7.44998 6.09493 7.32982 6.26624 7.25886C6.43754 7.18791 6.62604 7.16934 6.8079 7.20551C6.98976 7.24169 7.15681 7.33098 7.28792 7.46209C7.41903 7.5932 7.50832 7.76025 7.54449 7.9421C7.58066 8.12396 7.5621 8.31246 7.49114 8.48377C7.42018 8.65507 7.30002 8.80149 7.14585 8.9045C6.99168 9.00752 6.81042 9.0625 6.625 9.0625C6.37636 9.0625 6.13791 8.96373 5.96209 8.78791C5.78628 8.6121 5.6875 8.37364 5.6875 8.125ZM12.4375 8.125C12.4375 7.93958 12.4925 7.75832 12.5955 7.60415C12.6985 7.44998 12.8449 7.32982 13.0162 7.25886C13.1875 7.18791 13.376 7.16934 13.5579 7.20551C13.7398 7.24169 13.9068 7.33098 14.0379 7.46209C14.169 7.5932 14.2583 7.76025 14.2945 7.9421C14.3307 8.12396 14.3121 8.31246 14.2411 8.48377C14.1702 8.65507 14.05 8.80149 13.8959 8.9045C13.7417 9.00752 13.5604 9.0625 13.375 9.0625C13.1264 9.0625 12.8879 8.96373 12.7121 8.78791C12.5363 8.6121 12.4375 8.37364 12.4375 8.125ZM14.3875 12.5312C13.9417 13.3 13.3017 13.9381 12.5317 14.3817C11.7617 14.8253 10.8887 15.0588 10 15.0588C9.11135 15.0588 8.2383 14.8253 7.46828 14.3817C6.69826 13.9381 6.0583 13.3 5.6125 12.5312C5.57553 12.4672 5.55153 12.3966 5.54189 12.3233C5.53224 12.25 5.53714 12.1755 5.55629 12.1041C5.57545 12.0327 5.60849 11.9658 5.65352 11.9072C5.69856 11.8486 5.7547 11.7994 5.81875 11.7625C5.88243 11.7242 5.95316 11.6992 6.02672 11.6889C6.10028 11.6786 6.17517 11.6832 6.24692 11.7024C6.31866 11.7217 6.38579 11.7552 6.44431 11.8009C6.50283 11.8467 6.55153 11.9038 6.5875 11.9688C6.93275 12.5685 7.42997 13.0667 8.02907 13.4131C8.62816 13.7595 9.30797 13.9419 10 13.9419C10.692 13.9419 11.3718 13.7595 11.9709 13.4131C12.57 13.0667 13.0673 12.5685 13.4125 11.9688C13.4485 11.9038 13.4972 11.8467 13.5557 11.8009C13.6142 11.7552 13.6813 11.7217 13.7531 11.7024C13.8248 11.6832 13.8997 11.6786 13.9733 11.6889C14.0468 11.6992 14.1176 11.7242 14.1813 11.7625C14.2453 11.7994 14.3015 11.8486 14.3465 11.9072C14.3915 11.9658 14.4246 12.0327 14.4437 12.1041C14.4629 12.1755 14.4678 12.25 14.4581 12.3233C14.4485 12.3966 14.4245 12.4672 14.3875 12.5312Z"
                  fill="black"
                />
              </svg>