<svg width="20" height="22" viewBox="0 0 20 22" fill="none" xmlns="http://www.w3.org/2000/svg">
<path d="M18.9437 9.68729L3.10937 0.818537C2.84202 0.673435 2.53707 0.612498 2.23449 0.643711C1.93191 0.674924 1.64583 0.796832 1.41373 0.993455C1.18163 1.19008 1.01436 1.45224 0.933842 1.74557C0.853321 2.03891 0.863309 2.34973 0.962496 2.63729L3.95312 10.9998L0.962496 19.3623C0.883452 19.589 0.859634 19.8313 0.893021 20.0691C0.926408 20.3068 1.01604 20.5332 1.15446 20.7294C1.29289 20.9256 1.47612 21.0859 1.68894 21.1971C1.90176 21.3082 2.13802 21.367 2.37812 21.3685C2.63362 21.3674 2.88485 21.303 3.10937 21.181L18.9437 12.3123C19.1757 12.1806 19.3686 11.9897 19.5028 11.7591C19.6371 11.5286 19.7078 11.2666 19.7078 10.9998C19.7078 10.733 19.6371 10.471 19.5028 10.2404C19.3686 10.0099 19.1757 9.81903 18.9437 9.68729ZM2.37812 19.8685L5.275 11.7498H10.75C10.9489 11.7498 11.1397 11.6708 11.2803 11.5301C11.421 11.3895 11.5 11.1987 11.5 10.9998C11.5 10.8009 11.421 10.6101 11.2803 10.4695C11.1397 10.3288 10.9489 10.2498 10.75 10.2498H5.275L2.37812 2.13104L18.2125 10.9998L2.37812 19.8685Z" fill="#2F80ED"/>
</svg>
