<svg
              width="12"
              height="12"
              viewBox="0 0 12 12"
              fill="none"
              xmlns="http://www.w3.org/2000/svg"
            >
              <path
                d="M9.49235 2.24128C10.3842 1.86316 11.2389 2.84723 10.7396 3.67737L9.70461 5.39821C9.48132 5.76946 9.52247 6.24227 9.80655 6.56935L11.1233 8.08547C11.7585 8.81686 11.0868 9.9338 10.143 9.71547L8.1865 9.26288C7.76442 9.16524 7.32747 9.35049 7.10418 9.72174L6.06917 11.4426C5.56988 12.2727 4.30001 11.979 4.216 11.0139L4.04186 9.01333C4.00429 8.58174 3.69308 8.22342 3.271 8.12578L1.31455 7.67319C0.370755 7.45486 0.257728 6.15637 1.14961 5.77825L2.99843 4.99443C3.39729 4.82533 3.64191 4.41862 3.60434 3.98703L3.4302 1.98648C3.34619 1.02141 4.54621 0.512651 5.18143 1.24403L6.4982 2.76016C6.78228 3.08724 7.24467 3.1942 7.64353 3.0251L9.49235 2.24128Z"
                fill="#E22B23"
              />
            </svg>