<svg width="14" height="9" viewBox="0 0 14 9" fill="none" xmlns="http://www.w3.org/2000/svg">
<path d="M13.6925 1.94218L7.44254 8.19218C7.38449 8.25029 7.31556 8.29639 7.23969 8.32785C7.16381 8.3593 7.08248 8.37549 7.00035 8.37549C6.91821 8.37549 6.83688 8.3593 6.76101 8.32785C6.68514 8.29639 6.61621 8.25029 6.55816 8.19218L0.30816 1.94218C0.190885 1.82491 0.125 1.66585 0.125 1.5C0.125 1.33414 0.190885 1.17508 0.30816 1.05781C0.425435 0.940533 0.584495 0.874649 0.750347 0.874649C0.9162 0.874649 1.07526 0.940533 1.19253 1.05781L7.00035 6.8664L12.8082 1.05781C12.8662 0.99974 12.9352 0.953677 13.011 0.922251C13.0869 0.890824 13.1682 0.874649 13.2503 0.874649C13.3325 0.874649 13.4138 0.890824 13.4897 0.922251C13.5655 0.953677 13.6345 0.99974 13.6925 1.05781C13.7506 1.11588 13.7967 1.18482 13.8281 1.26069C13.8595 1.33656 13.8757 1.41787 13.8757 1.5C13.8757 1.58212 13.8595 1.66344 13.8281 1.73931C13.7967 1.81518 13.7506 1.88412 13.6925 1.94218Z" fill="#343330"/>
</svg>
